<?xml version="1.0" encoding="UTF-8"?>
<svg id="_レイヤー_1" data-name="レイヤー_1" xmlns="http://www.w3.org/2000/svg" version="1.1" viewBox="0 0 600 230.58">
  <!-- Generator: Adobe Illustrator 30.4.0, SVG Export Plug-In . SVG Version: 2.1.4 Build 226)  -->
  <defs>
    <style>
      .st0 {
        fill: #0067ff;
      }

      .st1 {
        fill: #fff;
      }

      .st2 {
        fill: #00bb59;
      }
    </style>
  </defs>
  <g>
    <path class="st0" d="M43.98,135.39c-7.47-21.45.13-49.67,21.07-70.61,27.01-27.01,66.13-31.83,87.2-10.76,21.08,21.08,16.25,60.19-10.76,87.2-21.95,21.95-51.9,29.25-73.66,19.9.7.83,1.39,1.66,2.17,2.44,20.17,20.17,57.61,15.57,83.48-10.26.01-.01.03-.03.04-.04,33.64-33.64,38.47-83.55,10.76-111.26-27.71-27.71-77.62-22.88-111.26,10.76s-38.47,83.55-10.76,111.26c2.6,2.6,5.4,4.92,8.36,6.95-5.12-10.52-7.42-22.63-6.64-35.57Z"/>
    <path class="st2" d="M186.27,63.98c-2.6-2.6-5.4-4.92-8.36-6.95,5.12,10.52,7.42,22.63,6.64,35.57,7.46,21.45-.13,49.67-21.07,70.61-27.01,27.01-66.13,31.83-87.2,10.76-21.08-21.08-16.25-60.19,10.76-87.2,21.95-21.95,51.9-29.25,73.66-19.9-.7-.83-1.39-1.66-2.17-2.44-20.19-20.19-57.65-15.56-83.52,10.3-33.64,33.64-38.47,83.55-10.76,111.26s77.62,22.88,111.26-10.76c33.64-33.64,38.47-83.55,10.76-111.26Z"/>
  </g>
  <g>
    <path class="st1" d="M261.62,109.09c-5.59,0-10.17-1.76-13.73-5.28-3.57-3.52-5.35-8.02-5.35-13.51v-1.88h11.06v1.3c0,2.67.73,4.81,2.19,6.41,1.46,1.6,3.4,2.4,5.84,2.4s4.18-.79,5.6-2.38c1.42-1.59,2.13-3.73,2.13-6.43v-33.57h11.06v34.15c0,5.52-1.73,10.03-5.19,13.53-3.46,3.5-7.99,5.26-13.6,5.26Z"/>
    <path class="st1" d="M310.29,56.15c3.42,0,6.52.77,9.3,2.29,2.78,1.53,4.97,3.66,6.58,6.4,1.6,2.73,2.4,5.78,2.4,9.12,0,5.11-1.75,9.35-5.24,12.74-3.49,3.38-7.84,5.08-13.04,5.08h-8.74v16.19h-11.2v-51.81h19.95ZM309.78,81.41c2.19,0,3.97-.7,5.35-2.1,1.37-1.4,2.06-3.18,2.06-5.35s-.68-3.94-2.04-5.33c-1.36-1.38-3.15-2.08-5.37-2.08h-8.24v14.85h8.24Z"/>
    <path class="st1" d="M375.87,56.15l-18.25,30.89v20.92h-11.49v-20.99l-18.07-30.82h11.92l11.96,20.74,12-20.74h11.92Z"/>
    <path class="st1" d="M401.06,109.09c-3.73,0-7.26-.69-10.57-2.08-3.31-1.38-6.15-3.27-8.51-5.65-2.36-2.38-4.23-5.25-5.6-8.58-1.37-3.34-2.06-6.88-2.06-10.64s.69-7.38,2.06-10.73c1.37-3.35,3.24-6.21,5.6-8.6,2.36-2.38,5.2-4.27,8.51-5.65,3.31-1.38,6.83-2.08,10.57-2.08,6.29,0,11.74,1.9,16.35,5.71,4.61,3.81,7.52,8.78,8.73,14.92h-11.24c-1.08-3.08-2.85-5.51-5.29-7.28-2.45-1.77-5.29-2.66-8.55-2.66-4.38,0-8.05,1.56-10.98,4.68-2.94,3.12-4.41,7.02-4.41,11.69s1.47,8.52,4.41,11.62c2.94,3.1,6.6,4.64,10.98,4.64,3.4,0,6.33-.96,8.82-2.87,2.48-1.92,4.19-4.52,5.13-7.82h11.31c-1.18,6.41-4.08,11.57-8.71,15.5-4.62,3.93-10.14,5.89-16.55,5.89Z"/>
    <path class="st1" d="M267.06,149.09h27.57c0,5.35-1.11,10.17-3.34,14.45-2.23,4.29-5.36,7.65-9.39,10.08-4.04,2.43-8.61,3.65-13.71,3.65-3.76,0-7.29-.68-10.6-2.04-3.31-1.36-6.16-3.23-8.55-5.6-2.38-2.37-4.26-5.23-5.64-8.56-1.37-3.34-2.06-6.92-2.06-10.75s.67-7.42,2.02-10.77c1.35-3.35,3.19-6.22,5.53-8.62,2.34-2.4,5.15-4.28,8.46-5.65,3.3-1.37,6.84-2.06,10.62-2.06,4.24,0,8.2.84,11.87,2.51,3.67,1.67,6.74,4.01,9.21,7.01,2.47,3,4.1,6.41,4.9,10.24h-11.56c-1.11-2.77-2.94-4.97-5.49-6.59-2.55-1.63-5.46-2.44-8.71-2.44-4.58,0-8.3,1.52-11.18,4.55-2.88,3.04-4.32,6.97-4.32,11.82s1.42,8.73,4.26,11.74c2.84,3.01,6.59,4.52,11.24,4.52,3.35,0,6.35-.81,9-2.44,2.65-1.63,4.46-3.78,5.42-6.45h-15.54v-8.6Z"/>
    <path class="st1" d="M333.7,136.11h8.09v39.96h-8.49l-.94-3.58c-3.64,3.18-7.95,4.77-12.94,4.77-3.95,0-7.53-.92-10.73-2.75-3.2-1.83-5.71-4.37-7.52-7.61-1.81-3.24-2.71-6.85-2.71-10.82s.9-7.53,2.71-10.75,4.31-5.73,7.52-7.55c3.2-1.82,6.78-2.73,10.73-2.73,5.08,0,9.45,1.63,13.12,4.88l1.16-3.83ZM312.5,163.92c2.06,2.08,4.65,3.13,7.79,3.13s5.73-1.04,7.79-3.11c2.06-2.07,3.09-4.69,3.09-7.84s-1.03-5.77-3.09-7.84c-2.06-2.07-4.66-3.11-7.79-3.11s-5.73,1.04-7.79,3.13c-2.06,2.08-3.09,4.69-3.09,7.82s1.03,5.74,3.09,7.82Z"/>
    <path class="st1" d="M370.19,166.54h4.91v9.61h-7.66c-4.38,0-7.85-1.27-10.39-3.81-2.54-2.54-3.81-6.03-3.81-10.46v-17.02h-7.23v-2.31l15.79-16.8h2.06v10.44h11.02v8.67h-10.84v15.57c0,1.95.53,3.46,1.59,4.52,1.06,1.06,2.58,1.59,4.55,1.59Z"/>
    <path class="st1" d="M419.41,156.02c0,1.08-.07,2.14-.22,3.18h-30.24c.46,2.72,1.55,4.81,3.27,6.27,1.72,1.46,3.9,2.19,6.52,2.19,1.85,0,3.52-.41,5-1.23,1.48-.82,2.63-1.95,3.45-3.4h11.35c-1.45,4.36-3.95,7.82-7.52,10.39-3.57,2.57-7.66,3.85-12.29,3.85-3.88,0-7.4-.92-10.57-2.76-3.17-1.84-5.65-4.38-7.46-7.61-1.81-3.23-2.71-6.8-2.71-10.73s.9-7.54,2.69-10.77c1.79-3.23,4.28-5.76,7.44-7.59,3.17-1.83,6.7-2.75,10.6-2.75s7.59.95,10.77,2.84c3.18,1.89,5.62,4.43,7.33,7.61,1.71,3.18,2.57,6.68,2.57,10.51ZM398.74,144.28c-2.38,0-4.41.66-6.07,1.99-1.66,1.33-2.81,3.18-3.43,5.56h19.37c-.75-2.43-1.97-4.3-3.67-5.6s-3.76-1.95-6.2-1.95Z"/>
    <path class="st1" d="M471.11,136.19h10.7l-13.08,39.96h-8.67l-9.07-20.67-8.85,20.67h-8.71l-13.22-39.96h10.98l7.88,23.81,10.41-23.52h3.04l10.73,23.59,7.88-23.88Z"/>
    <path class="st1" d="M517.94,136.11h8.09v39.96h-8.49l-.94-3.58c-3.64,3.18-7.95,4.77-12.94,4.77-3.95,0-7.53-.92-10.73-2.75-3.2-1.83-5.71-4.37-7.52-7.61-1.81-3.24-2.71-6.85-2.71-10.82s.9-7.53,2.71-10.75,4.31-5.73,7.52-7.55c3.2-1.82,6.78-2.73,10.73-2.73,5.08,0,9.45,1.63,13.12,4.88l1.16-3.83ZM496.75,163.92c2.06,2.08,4.65,3.13,7.79,3.13s5.73-1.04,7.79-3.11c2.06-2.07,3.09-4.69,3.09-7.84s-1.03-5.77-3.09-7.84c-2.06-2.07-4.66-3.11-7.79-3.11s-5.73,1.04-7.79,3.13c-2.06,2.08-3.09,4.69-3.09,7.82s1.03,5.74,3.09,7.82Z"/>
    <path class="st1" d="M562.53,136.19h11.49l-17.42,39.42c-1.66,3.76-3.28,6.68-4.86,8.76-1.58,2.08-3.41,3.64-5.51,4.66-2.1,1.02-4.64,1.54-7.62,1.54h-4.44v-9.72h3.76c2.55,0,4.38-.47,5.47-1.41,1.1-.94,2.27-2.95,3.52-6.03l.14-.33-16.91-36.89h11.74l10.66,24.57,9.97-24.57Z"/>
  </g>
</svg>